v 0.058190 0.141605 -0.045068
v 0.089347 0.147487 -0.023338
v 0.115722 0.156977 0.002964
v 0.136303 0.169712 0.032827
v 0.150299 0.185202 0.065102
v 0.157171 0.202852 0.098550
v 0.156656 0.221983 0.131886
v 0.148774 0.241860 0.163828
v 0.133827 0.261720 0.193149
v 0.112389 0.280799 0.218721
v 0.085286 0.298364 0.239563
v 0.053557 0.313740 0.254873
v 0.018423 0.326336 0.264063
v -0.018767 0.335668 0.266780
v -0.056582 0.341377 0.262919
v -0.093571 0.343245 0.252629
v -0.128311 0.341199 0.236306
v -0.159467 0.335317 0.214575
v -0.185843 0.325827 0.188273
v -0.206424 0.313092 0.158411
v -0.220420 0.297602 0.126135
v -0.227292 0.279952 0.092687
v -0.226777 0.260821 0.059351
v -0.218895 0.240944 0.027409
v -0.203948 0.221084 -0.001911
v -0.182510 0.202005 -0.027484
v -0.155406 0.184440 -0.048326
v -0.123678 0.169064 -0.063636
v -0.088544 0.156468 -0.072826
v -0.051354 0.147136 -0.075543
v -0.013539 0.141427 -0.071682
v 0.023450 0.139559 -0.061392
v 0.035060 0.576518 -0.095619
vt 0.250000 0.490000
vt 0.250000 0.250000
vt 0.296822 0.485388
vt 0.341844 0.471731
vt 0.383337 0.449553
vt 0.419706 0.419706
vt 0.449553 0.383337
vt 0.471731 0.341844
vt 0.485388 0.296822
vt 0.490000 0.250000
vt 0.485388 0.203178
vt 0.471731 0.158156
vt 0.449553 0.116663
vt 0.419706 0.080294
vt 0.383337 0.050447
vt 0.341844 0.028269
vt 0.296822 0.014612
vt 0.250000 0.010000
vt 0.203178 0.014612
vt 0.158156 0.028269
vt 0.116663 0.050447
vt 0.080294 0.080294
vt 0.050447 0.116663
vt 0.028269 0.158156
vt 0.014612 0.203178
vt 0.010000 0.250000
vt 0.014612 0.296822
vt 0.028269 0.341844
vt 0.050447 0.383337
vt 0.080294 0.419706
vt 0.116663 0.449553
vt 0.158156 0.471731
vt 0.750000 0.490000
vt 0.796822 0.485388
vt 0.841844 0.471731
vt 0.883337 0.449553
vt 0.919706 0.419706
vt 0.949553 0.383337
vt 0.971731 0.341844
vt 0.985388 0.296822
vt 0.990000 0.250000
vt 0.985388 0.203178
vt 0.971731 0.158156
vt 0.949553 0.116663
vt 0.919706 0.080294
vt 0.883337 0.050447
vt 0.841844 0.028269
vt 0.796822 0.014612
vt 0.750000 0.010000
vt 0.703178 0.014612
vt 0.658156 0.028269
vt 0.616663 0.050447
vt 0.580294 0.080294
vt 0.550447 0.116663
vt 0.528269 0.158156
vt 0.514612 0.203178
vt 0.510000 0.250000
vt 0.514612 0.296822
vt 0.528269 0.341844
vt 0.550447 0.383337
vt 0.580294 0.419706
vt 0.616663 0.449553
vt 0.658156 0.471731
vt 0.703178 0.485388
vt 0.203178 0.485388
vn 0.5790 -0.0637 -0.8129
vn 0.7109 -0.0284 -0.7027
vn 0.8187 0.0226 -0.5738
vn 0.8980 0.0873 -0.4313
vn 0.9458 0.1633 -0.2805
vn 0.9604 0.2477 -0.1273
vn 0.9412 0.3372 0.0224
vn 0.8888 0.4283 0.1630
vn 0.8053 0.5177 0.2889
vn 0.6940 0.6017 0.3954
vn 0.5590 0.6773 0.4783
vn 0.4056 0.7415 0.5345
vn 0.2397 0.7918 0.5618
vn 0.0677 0.8263 0.5592
vn -0.1039 0.8437 0.5267
vn -0.2685 0.8432 0.4657
vn -0.4197 0.8251 0.3784
vn -0.5516 0.7898 0.2682
vn -0.6593 0.7388 0.1394
vn -0.7387 0.6741 -0.0032
vn -0.7865 0.5980 -0.1540
vn -0.8011 0.5137 -0.3072
vn -0.7819 0.4242 -0.4569
vn -0.7295 0.3330 -0.5974
vn -0.6460 0.2437 -0.7234
vn -0.5347 0.1596 -0.8298
vn -0.3997 0.0841 -0.9128
vn -0.2463 0.0199 -0.9690
vn -0.0804 -0.0304 -0.9963
vn 0.0916 -0.0649 -0.9937
vn -0.1788 -0.8545 0.4876
vn 0.2633 -0.0823 -0.9612
vn 0.4278 -0.0819 -0.9002
usemtl None
s off
f 1/1/1 33/2/1 2/3/1
f 2/3/2 33/2/2 3/4/2
f 3/4/3 33/2/3 4/5/3
f 4/5/4 33/2/4 5/6/4
f 5/6/5 33/2/5 6/7/5
f 6/7/6 33/2/6 7/8/6
f 7/8/7 33/2/7 8/9/7
f 8/9/8 33/2/8 9/10/8
f 9/10/9 33/2/9 10/11/9
f 10/11/10 33/2/10 11/12/10
f 11/12/11 33/2/11 12/13/11
f 12/13/12 33/2/12 13/14/12
f 13/14/13 33/2/13 14/15/13
f 14/15/14 33/2/14 15/16/14
f 15/16/15 33/2/15 16/17/15
f 16/17/16 33/2/16 17/18/16
f 17/18/17 33/2/17 18/19/17
f 18/19/18 33/2/18 19/20/18
f 19/20/19 33/2/19 20/21/19
f 20/21/20 33/2/20 21/22/20
f 21/22/21 33/2/21 22/23/21
f 22/23/22 33/2/22 23/24/22
f 23/24/23 33/2/23 24/25/23
f 24/25/24 33/2/24 25/26/24
f 25/26/25 33/2/25 26/27/25
f 26/27/26 33/2/26 27/28/26
f 27/28/27 33/2/27 28/29/27
f 28/29/28 33/2/28 29/30/28
f 29/30/29 33/2/29 30/31/29
f 30/31/30 33/2/30 31/32/30
f 1/33/31 2/34/31 3/35/31 4/36/31 5/37/31 6/38/31 7/39/31 8/40/31 9/41/31 10/42/31 11/43/31 12/44/31 13/45/31 14/46/31 15/47/31 16/48/31 17/49/31 18/50/31 19/51/31 20/52/31 21/53/31 22/54/31 23/55/31 24/56/31 25/57/31 26/58/31 27/59/31 28/60/31 29/61/31 30/62/31 31/63/31 32/64/31
f 31/32/32 33/2/32 32/65/32
f 32/65/33 33/2/33 1/1/33
